<svg width="41" height="45" viewBox="0 0 41 45" fill="none" xmlns="http://www.w3.org/2000/svg">
<path d="M33.9367 23.6092C33.9856 20.2051 36.0243 16.9842 39.2586 15.2012C37.2182 12.5883 33.8007 10.9317 30.2452 10.8319C26.4529 10.475 22.7765 12.8667 20.844 12.8667C18.8741 12.8667 15.8988 10.8674 12.6948 10.9265C8.51856 11.0475 4.62527 13.1765 2.59345 16.4504C-1.77417 23.231 1.48368 33.1961 5.66749 38.677C7.76074 41.3608 10.2071 44.3587 13.4082 44.2524C16.5407 44.1359 17.7106 42.4613 21.4917 42.4613C25.2377 42.4613 26.3354 44.2524 29.6014 44.1848C32.9626 44.1359 35.0804 41.4891 37.1002 38.7798C38.6042 36.8675 39.7615 34.7539 40.5293 32.5175C36.5792 31.0194 33.9413 27.4549 33.9367 23.6092Z" fill="white"/>
<path d="M27.7677 7.22744C29.6004 5.25467 30.5033 2.71901 30.2846 0.158936C27.4847 0.422632 24.8983 1.62256 23.0408 3.51965C21.2245 5.37319 20.2793 7.86424 20.458 10.3265C23.2589 10.3523 26.0125 9.18491 27.7677 7.22744Z" fill="white"/>
</svg>
