<svg width="25" height="24" viewBox="0 0 25 24" fill="none" xmlns="http://www.w3.org/2000/svg">
<path d="M8.66 6.6499H16.33C16.97 6.6499 17.49 7.1699 17.49 7.8099V9.0899C17.49 9.5599 17.2 10.1399 16.91 10.4299L14.41 12.6399C14.06 12.9299 13.83 13.5099 13.83 13.9799V16.4799C13.83 16.8299 13.6 17.2899 13.31 17.4699L12.5 17.9799C11.74 18.4499 10.7 17.9199 10.7 16.9899V13.9099C10.7 13.4999 10.47 12.9799 10.23 12.6899L8.02 10.3599C7.73 10.0799 7.5 9.5499 7.5 9.1999V7.8699C7.5 7.1699 8.02 6.6499 8.66 6.6499Z" stroke="#F3B301" stroke-width="1.5" stroke-miterlimit="10" stroke-linecap="round" stroke-linejoin="round"/>
<path d="M9.5 22H15.5C20.5 22 22.5 20 22.5 15V9C22.5 4 20.5 2 15.5 2H9.5C4.5 2 2.5 4 2.5 9V15C2.5 20 4.5 22 9.5 22Z" stroke="#F3B301" stroke-width="1.5" stroke-linecap="round" stroke-linejoin="round"/>
</svg>
