<svg width="47" height="54" viewBox="0 0 47 54" fill="none" xmlns="http://www.w3.org/2000/svg">
<path fill-rule="evenodd" clip-rule="evenodd" d="M33.9932 18.191L5.12059 1.641C3.6164 0.778737 2.25953 0.764831 1.32507 1.4355L25.9647 26.291L33.9932 18.191ZM34.8911 18.7057L26.6687 27.0013L34.895 35.2997L44.267 29.9282C47.0714 28.3184 47.0714 25.6879 44.267 24.08L34.8911 18.7057ZM33.9959 35.813L25.9647 27.7115L1.3251 52.5706C2.25956 53.241 3.61641 53.2257 5.12059 52.3652L33.9959 35.813ZM0.639311 51.842L25.2607 27.0013L0.638597 2.16344C0.244696 2.77225 0.0197754 3.59795 0.0197754 4.60964V49.3945C0.0197754 50.4085 0.244968 51.2335 0.639311 51.842Z" fill="white"/>
</svg>
