<svg width="44" height="44" viewBox="0 0 44 44" fill="none" xmlns="http://www.w3.org/2000/svg">
<g filter="url(#filter0_d_134_6148)">
<rect x="5" y="5" width="34" height="34" rx="17" fill="#FDE1D3"/>
<path d="M31.016 18.2618C30.9725 17.2963 30.8165 16.6358 30.5952 16.0587C30.3631 15.4634 30.0547 14.9553 29.5505 14.4544C29.0463 13.9535 28.5421 13.6377 27.9472 13.4091C27.3705 13.184 26.7103 13.0316 25.7454 12.988C24.7769 12.9445 24.4686 12.9336 22.0092 12.9336C19.5462 12.9336 19.2379 12.9445 18.273 12.988C17.3081 13.0316 16.6479 13.1877 16.0711 13.4091C15.4726 13.6414 14.9648 13.9499 14.4642 14.4544C13.9636 14.9589 13.6481 15.4634 13.4195 16.0587C13.1983 16.6358 13.0423 17.2963 12.9987 18.2618C12.9552 19.2309 12.9443 19.5394 12.9443 22.0003C12.9443 24.4647 12.9552 24.7733 12.9987 25.7387C13.0423 26.7042 13.1983 27.3648 13.4195 27.9419C13.6517 28.5371 13.96 29.0453 14.4642 29.5461C14.9648 30.0506 15.4726 30.3628 16.0675 30.5915C16.6443 30.8165 17.3045 30.9689 18.2693 31.0125C19.2379 31.056 19.5462 31.0669 22.0056 31.0669C24.4686 31.0669 24.7769 31.056 25.7418 31.0125C26.7067 30.9689 27.3668 30.8129 27.9436 30.5915C28.5385 30.3592 29.0463 30.0506 29.5469 29.5461C30.0475 29.0416 30.3631 28.5371 30.5916 27.9419C30.8165 27.3648 30.9688 26.7042 31.0124 25.7387C31.0559 24.7696 31.0668 24.4611 31.0668 22.0003C31.0668 19.5394 31.0595 19.2273 31.016 18.2618ZM29.3873 25.6661C29.3474 26.5517 29.1987 27.0345 29.0753 27.3502C28.9121 27.7713 28.7126 28.0762 28.3934 28.3956C28.0742 28.715 27.7731 28.9073 27.3487 29.0779C27.0295 29.2013 26.5471 29.3501 25.6656 29.3901C24.7116 29.4336 24.425 29.4445 22.0019 29.4445C19.5788 29.4445 19.2923 29.4336 18.3383 29.3901C17.4532 29.3501 16.9707 29.2013 16.6552 29.0779C16.2344 28.9146 15.9297 28.715 15.6105 28.3956C15.2913 28.0762 15.099 27.7749 14.9285 27.3502C14.8052 27.0308 14.6565 26.5481 14.6166 25.6661C14.573 24.7115 14.5622 24.4248 14.5622 22.0003C14.5622 19.5757 14.573 19.289 14.6166 18.3344C14.6565 17.4488 14.8052 16.966 14.9285 16.6503C15.0918 16.2292 15.2913 15.9244 15.6105 15.605C15.9297 15.2856 16.2308 15.0932 16.6552 14.9226C16.9744 14.7992 17.4568 14.6504 18.3383 14.6105C19.2923 14.5669 19.5788 14.556 22.0019 14.556C24.425 14.556 24.7116 14.5669 25.6656 14.6105C26.5507 14.6504 27.0331 14.7992 27.3487 14.9226C27.7695 15.0859 28.0742 15.2856 28.3934 15.605C28.7126 15.9244 28.9049 16.2256 29.0753 16.6503C29.1987 16.9697 29.3474 17.4524 29.3873 18.3344C29.4308 19.289 29.4417 19.5757 29.4417 22.0003C29.4417 24.4248 29.4272 24.7115 29.3873 25.6661Z" fill="url(#paint0_linear_134_6148)"/>
<path d="M22.0018 17.3398C19.4264 17.3398 17.3442 19.4268 17.3442 22.0002C17.3442 24.5772 19.43 26.6606 22.0018 26.6606C24.5736 26.6606 26.6594 24.5699 26.6594 22.0002C26.6594 19.4232 24.5773 17.3398 22.0018 17.3398ZM22.0018 25.0236C20.3332 25.0236 18.9802 23.6698 18.9802 22.0002C18.9802 20.3306 20.3332 18.9768 22.0018 18.9768C23.6704 18.9768 25.0234 20.3306 25.0234 22.0002C25.0234 23.6698 23.6704 25.0236 22.0018 25.0236Z" fill="url(#paint1_linear_134_6148)"/>
<path d="M26.8404 18.2476C27.4414 18.2476 27.9286 17.7601 27.9286 17.1587C27.9286 16.5573 27.4414 16.0698 26.8404 16.0698C26.2394 16.0698 25.7522 16.5573 25.7522 17.1587C25.7522 17.7601 26.2394 18.2476 26.8404 18.2476Z" fill="#BC30A0"/>
<path d="M12.9333 22.0003C12.9333 24.4647 12.9442 24.7733 12.9878 25.7387C13.0313 26.7042 13.1873 27.3648 13.4085 27.9419C13.6407 28.5371 13.949 29.0453 14.4532 29.5461C14.9538 30.047 15.4616 30.3628 16.0565 30.5915C16.6333 30.8165 17.2935 30.9689 18.2584 31.0125C19.2269 31.056 19.5352 31.0669 21.9946 31.0669C24.4576 31.0669 24.7659 31.056 25.7308 31.0125C26.6957 30.9689 27.3559 30.8129 27.9326 30.5915C28.5275 30.3592 29.0353 30.0506 29.5359 29.5461C30.0365 29.0453 30.3521 28.5371 30.5806 27.9419C30.8055 27.3648 30.9579 26.7042 31.0014 25.7387C31.0449 24.7696 31.0558 24.4611 31.0558 22.0003C31.0558 19.5358 31.0449 19.2273 31.0014 18.2618C30.9579 17.2963 30.8019 16.6358 30.5806 16.0587C30.3485 15.4634 30.0401 14.9553 29.5359 14.4544C29.039 13.9499 28.5311 13.6377 27.9362 13.4091C27.3595 13.184 26.6993 13.0316 25.7344 12.988C24.7659 12.9445 24.4576 12.9336 21.9982 12.9336C19.5352 12.9336 19.2269 12.9445 18.262 12.988C17.2971 13.0316 16.6369 13.1877 16.0602 13.4091C15.4653 13.6414 14.9574 13.9499 14.4569 14.4544C13.9563 14.9589 13.6407 15.4634 13.4122 16.0587C13.1873 16.6358 13.0313 17.2963 12.9878 18.2618C12.9442 19.2273 12.9333 19.5358 12.9333 22.0003ZM14.5693 22.0003C14.5693 19.5793 14.5802 19.289 14.6237 18.3344C14.6636 17.4488 14.8123 16.966 14.9357 16.6503C15.0989 16.2292 15.2984 15.9244 15.6176 15.605C15.9368 15.2856 16.2379 15.0932 16.6623 14.9226C16.9815 14.7992 17.464 14.6504 18.3454 14.6105C19.2994 14.5669 19.586 14.556 22.0091 14.556C24.4322 14.556 24.7187 14.5669 25.6728 14.6105C26.5578 14.6504 27.0403 14.7992 27.3559 14.9226C27.7766 15.0859 28.0813 15.2856 28.4005 15.605C28.7198 15.9244 28.912 16.2256 29.0825 16.6503C29.2058 16.9697 29.3546 17.4524 29.3945 18.3344C29.438 19.289 29.4489 19.5757 29.4489 22.0003C29.4489 24.4248 29.438 24.7115 29.3945 25.6661C29.3546 26.5517 29.2058 27.0345 29.0825 27.3502C28.9193 27.7713 28.7198 28.0762 28.4005 28.3956C28.0813 28.715 27.7803 28.9073 27.3559 29.0779C27.0367 29.2013 26.5542 29.3501 25.6728 29.3901C24.7187 29.4336 24.4322 29.4445 22.0091 29.4445C19.586 29.4445 19.2994 29.4336 18.3454 29.3901C17.4603 29.3501 16.9779 29.2013 16.6623 29.0779C16.2415 28.9146 15.9368 28.715 15.6176 28.3956C15.2984 28.0762 15.1062 27.7749 14.9357 27.3502C14.8123 27.0308 14.6636 26.5481 14.6237 25.6661C14.5766 24.7115 14.5693 24.4212 14.5693 22.0003Z" fill="url(#paint2_linear_134_6148)"/>
</g>
<defs>
<filter id="filter0_d_134_6148" x="0.466667" y="0.466667" width="43.0667" height="43.0667" filterUnits="userSpaceOnUse" color-interpolation-filters="sRGB">
<feFlood flood-opacity="0" result="BackgroundImageFix"/>
<feColorMatrix in="SourceAlpha" type="matrix" values="0 0 0 0 0 0 0 0 0 0 0 0 0 0 0 0 0 0 127 0" result="hardAlpha"/>
<feOffset/>
<feGaussianBlur stdDeviation="2.26667"/>
<feComposite in2="hardAlpha" operator="out"/>
<feColorMatrix type="matrix" values="0 0 0 0 0 0 0 0 0 0 0 0 0 0 0 0 0 0 0.25 0"/>
<feBlend mode="normal" in2="BackgroundImageFix" result="effect1_dropShadow_134_6148"/>
<feBlend mode="normal" in="SourceGraphic" in2="effect1_dropShadow_134_6148" result="shape"/>
</filter>
<linearGradient id="paint0_linear_134_6148" x1="28.2678" y1="14.3202" x2="15.1495" y2="30.3927" gradientUnits="userSpaceOnUse">
<stop stop-color="#AE3DAE"/>
<stop offset="0.0468721" stop-color="#B23BA6"/>
<stop offset="0.1216" stop-color="#BD368E"/>
<stop offset="0.2148" stop-color="#CE2E69"/>
<stop offset="0.3216" stop-color="#E62335"/>
<stop offset="0.418" stop-color="#FF1800"/>
</linearGradient>
<linearGradient id="paint1_linear_134_6148" x1="24.223" y1="18.2624" x2="19.4575" y2="26.2702" gradientUnits="userSpaceOnUse">
<stop stop-color="#E12F6A"/>
<stop offset="0.1705" stop-color="#EA3751"/>
<stop offset="0.3563" stop-color="#F13D3E"/>
<stop offset="0.5467" stop-color="#F64133"/>
<stop offset="0.7469" stop-color="#F7422F"/>
<stop offset="0.7946" stop-color="#F74C2F"/>
<stop offset="0.8743" stop-color="#F7652F"/>
<stop offset="0.9757" stop-color="#F78F2E"/>
<stop offset="1" stop-color="#F79A2E"/>
</linearGradient>
<linearGradient id="paint2_linear_134_6148" x1="26.1088" y1="12.1871" x2="18.0816" y2="31.321" gradientUnits="userSpaceOnUse">
<stop offset="0.2341" stop-color="#9E35A5" stop-opacity="0"/>
<stop offset="0.4512" stop-color="#D42F7F" stop-opacity="0.5"/>
<stop offset="0.7524" stop-color="#F7772E"/>
<stop offset="0.9624" stop-color="#FEF780"/>
</linearGradient>
</defs>
</svg>
