<svg width="140" height="79" viewBox="0 0 140 79" fill="none" xmlns="http://www.w3.org/2000/svg">
<path d="M132.561 32.0418C131.846 32.0418 131.287 31.849 130.899 31.4651C130.511 31.0812 130.32 30.5639 130.32 29.8934C130.308 29.6148 130.35 29.3365 130.445 29.0746C130.54 28.8126 130.685 28.5721 130.872 28.3669C131.057 28.1741 131.279 28.0228 131.526 27.9228C131.772 27.8228 132.037 27.7764 132.302 27.7865C132.889 27.7865 133.346 27.9559 133.673 28.2948C133.838 28.4761 133.967 28.6888 134.05 28.9206C134.134 29.1523 134.171 29.3985 134.159 29.6447C134.171 29.7981 134.13 29.951 134.043 30.0773C133.991 30.1272 133.929 30.1651 133.861 30.1885C133.793 30.2118 133.721 30.22 133.65 30.2124H131.241C131.239 30.3506 131.268 30.4873 131.327 30.6122C131.386 30.7371 131.471 30.8469 131.578 30.9334C131.857 31.1468 132.203 31.2512 132.552 31.2272C132.774 31.2282 132.994 31.1885 133.201 31.11C133.329 31.0533 133.463 31.0144 133.601 30.9947C133.652 30.9922 133.703 31 133.751 31.0176C133.799 31.0353 133.843 31.0624 133.88 31.0974C133.914 31.1313 133.94 31.1715 133.958 31.2158C133.975 31.26 133.984 31.3074 133.984 31.3551C133.982 31.4401 133.958 31.5231 133.915 31.5961C133.872 31.669 133.81 31.7294 133.737 31.7715C133.379 31.9732 132.971 32.067 132.561 32.0418ZM131.241 29.5888H133.237C133.254 29.4488 133.241 29.3068 133.201 29.1718C133.16 29.0368 133.092 28.9118 133.001 28.8048C132.905 28.7168 132.792 28.6494 132.669 28.6066C132.546 28.5639 132.416 28.5467 132.286 28.5561C132.148 28.5522 132.012 28.5768 131.884 28.6282C131.756 28.6797 131.64 28.757 131.543 28.8553C131.445 28.9504 131.368 29.0645 131.316 29.1906C131.264 29.3168 131.239 29.4523 131.241 29.5888Z" fill="#333333"/>
<path d="M129.511 31.0566C129.553 31.0573 129.595 31.0669 129.633 31.0849C129.671 31.103 129.705 31.1289 129.733 31.1612C129.797 31.2337 129.831 31.3287 129.828 31.4261C129.831 31.5514 129.789 31.6736 129.71 31.7703C129.545 31.9578 129.264 32.0515 128.866 32.0515C128.584 32.0657 128.307 31.9796 128.082 31.8082C127.89 31.6583 127.75 31.4524 127.679 31.2188C127.61 30.9617 127.577 30.6959 127.581 30.4294V28.7082H127.27C127.219 28.7087 127.168 28.6987 127.12 28.6789C127.073 28.6591 127.029 28.6298 126.993 28.5929C126.955 28.5566 126.924 28.5124 126.903 28.4634C126.883 28.4143 126.872 28.3614 126.873 28.3081C126.876 28.2027 126.918 28.1022 126.992 28.0277C127.066 27.9532 127.166 27.9103 127.27 27.908H127.604C127.617 27.6922 127.658 27.479 127.724 27.2736C127.824 27.0392 127.96 26.9131 128.13 26.9131C128.362 26.9131 128.487 27.0429 128.487 27.2988V27.9008H129.292C129.343 27.9004 129.394 27.9108 129.441 27.9313C129.488 27.9517 129.53 27.9819 129.565 28.0197C129.601 28.0566 129.63 28.1005 129.65 28.1487C129.67 28.197 129.68 28.2487 129.679 28.3009C129.681 28.3537 129.671 28.4062 129.651 28.4552C129.632 28.5042 129.602 28.5485 129.565 28.5856C129.53 28.6227 129.487 28.652 129.44 28.6718C129.393 28.6917 129.342 28.7016 129.292 28.701H128.487V30.3051C128.487 30.4546 128.487 30.57 128.5 30.6529C128.509 30.7441 128.528 30.8341 128.555 30.9214C128.577 31.0069 128.629 31.0813 128.702 31.1305C128.785 31.1753 128.879 31.1971 128.973 31.1936C129.079 31.1927 129.184 31.1681 129.279 31.1215C129.352 31.0856 129.431 31.0636 129.511 31.0566Z" fill="#333333"/>
<path d="M123.92 32.0424C123.536 32.0649 123.157 31.9514 122.848 31.7216C122.717 31.6085 122.614 31.4665 122.547 31.3067C122.481 31.1469 122.451 30.9737 122.462 30.8006C122.455 30.6132 122.493 30.427 122.572 30.2576C122.652 30.0882 122.771 29.9406 122.919 29.8273C123.245 29.5811 123.645 29.454 124.052 29.4669C124.484 29.4615 124.909 29.5722 125.283 29.7877C125.283 29.3803 125.191 29.0848 125.001 28.9009C124.763 28.6993 124.456 28.6002 124.147 28.6252C123.905 28.6292 123.664 28.6668 123.432 28.7369C123.346 28.7618 123.259 28.7805 123.171 28.7928C122.932 28.7928 122.814 28.6684 122.814 28.4161C122.819 28.3141 122.857 28.2166 122.921 28.1376C122.986 28.0585 123.073 28.0021 123.171 27.9763C123.526 27.8377 123.904 27.7721 124.284 27.7835C124.613 27.7739 124.939 27.8353 125.242 27.9637C125.485 28.0685 125.688 28.2492 125.821 28.4792C125.95 28.7024 126.04 28.9462 126.088 29.2001C126.14 29.4975 126.164 29.7993 126.159 30.1013V30.5969C126.152 30.7322 126.166 30.8678 126.2 30.9988C126.243 31.0858 126.312 31.1562 126.399 31.1989C126.465 31.2422 126.52 31.3013 126.559 31.3711C126.597 31.4409 126.619 31.5191 126.62 31.599C126.623 31.6598 126.612 31.7204 126.591 31.7772C126.569 31.8339 126.536 31.8855 126.493 31.9288C126.441 31.9741 126.381 32.008 126.315 32.0285C126.25 32.0489 126.181 32.0555 126.113 32.0478C126.018 32.0471 125.924 32.0264 125.838 31.987C125.751 31.9476 125.674 31.8903 125.61 31.8189C125.487 31.6732 125.41 31.4937 125.389 31.3034H125.373C125.212 31.5398 124.994 31.7314 124.74 31.8606C124.486 31.9897 124.204 32.0522 123.92 32.0424ZM124.118 31.3214C124.404 31.3237 124.681 31.2212 124.897 31.0331C125.103 30.8786 125.24 30.6487 125.278 30.3932C124.989 30.2052 124.653 30.1051 124.309 30.1049C124.074 30.0927 123.84 30.151 123.637 30.2725C123.559 30.3225 123.494 30.3924 123.45 30.4752C123.406 30.558 123.385 30.6509 123.387 30.7447C123.387 31.1376 123.63 31.3286 124.118 31.3286V31.3214Z" fill="#333333"/>
<path d="M118.253 31.8377C118.212 31.8857 118.16 31.9235 118.102 31.9479C118.044 31.9723 117.981 31.9827 117.919 31.9783C117.855 31.9826 117.792 31.9721 117.734 31.9477C117.675 31.9233 117.623 31.8857 117.581 31.8377C117.502 31.7388 117.462 31.6147 117.467 31.488V26.5443C117.458 26.4806 117.464 26.4157 117.485 26.3549C117.506 26.2941 117.54 26.239 117.586 26.1939C117.631 26.1488 117.686 26.1149 117.747 26.0951C117.807 26.0752 117.872 26.0698 117.935 26.0793H119.516C120.21 26.0793 120.754 26.2271 121.15 26.5226C121.545 26.8182 121.743 27.2898 121.741 27.9375C121.758 28.3405 121.647 28.7383 121.423 29.0729C121.224 29.3599 120.936 29.5722 120.605 29.6767L121.498 31.1762C121.58 31.288 121.627 31.4215 121.634 31.5601C121.635 31.6184 121.621 31.6759 121.594 31.7277C121.568 31.7795 121.53 31.824 121.482 31.8575C121.388 31.9345 121.271 31.9771 121.15 31.9783C121.002 31.9783 120.853 31.8539 120.705 31.6088L119.615 29.7902H118.364V31.488C118.368 31.6141 118.329 31.7377 118.253 31.8377ZM118.364 26.8633V29.0116H119.818C119.959 29.0179 120.1 28.9949 120.232 28.9441C120.364 28.8933 120.484 28.8156 120.585 28.7161C120.683 28.6126 120.759 28.4903 120.808 28.3565C120.858 28.2227 120.881 28.0802 120.875 27.9375C120.886 27.7833 120.859 27.6287 120.797 27.4875C120.735 27.3462 120.638 27.2228 120.517 27.1282C120.233 26.9382 119.896 26.8453 119.556 26.8633H118.364Z" fill="#333333"/>
<path d="M114.207 31.361C114.246 31.3962 114.277 31.4396 114.298 31.4882C114.319 31.5368 114.328 31.5893 114.327 31.6422C114.329 31.6956 114.319 31.7489 114.3 31.7986C114.28 31.8482 114.25 31.8932 114.212 31.9306C114.175 31.967 114.131 31.9957 114.082 32.0149C114.034 32.034 113.982 32.0434 113.93 32.0423C113.77 32.0128 113.624 31.9304 113.515 31.808L113.222 31.5106C112.721 31.8868 112.106 32.0777 111.482 32.0513C110.84 32.0513 110.345 31.9107 109.995 31.626C109.704 31.37 109.52 31.0126 109.48 30.6256C109.439 30.2385 109.545 29.8504 109.777 29.5389C110.017 29.2552 110.307 29.0177 110.631 28.8378C110.318 28.435 110.148 27.9383 110.147 27.4266C110.142 27.2378 110.18 27.0505 110.256 26.8781C110.333 26.7058 110.446 26.5527 110.588 26.4299C110.933 26.144 111.372 25.9987 111.818 26.0226C112.217 26.0031 112.61 26.1313 112.922 26.383C113.057 26.4926 113.165 26.632 113.238 26.7904C113.312 26.9488 113.348 27.1221 113.344 27.2968C113.349 27.4751 113.317 27.6525 113.25 27.8178C113.184 27.9831 113.084 28.1328 112.958 28.2574C112.63 28.5647 112.259 28.8216 111.857 29.0198L111.898 29.0595L113.137 30.2941C113.259 29.9966 113.32 29.6771 113.315 29.3551C113.315 29.036 113.453 28.8756 113.73 28.8756C113.791 28.8707 113.852 28.8804 113.909 28.9039C113.965 28.9274 114.015 28.964 114.055 29.0108C114.126 29.1109 114.163 29.2319 114.159 29.3551C114.173 29.901 114.035 30.44 113.76 30.9105L114.207 31.361ZM111.592 31.298C111.98 31.3068 112.36 31.1793 112.665 30.9375L111.171 29.4308L111.147 29.4073C110.937 29.5156 110.747 29.6602 110.586 29.8345C110.461 29.9953 110.398 30.1962 110.408 30.4004C110.394 30.9988 110.789 31.298 111.592 31.298ZM111.818 26.7615C111.265 26.7615 110.99 27.003 110.99 27.4824C111.01 27.8351 111.141 28.1722 111.364 28.4449C111.673 28.3004 111.964 28.1189 112.23 27.9042C112.317 27.837 112.388 27.7509 112.438 27.6523C112.487 27.5537 112.514 27.4452 112.516 27.3347C112.52 27.2531 112.504 27.1718 112.471 27.0974C112.438 27.0229 112.388 26.9573 112.325 26.9057C112.178 26.7995 111.998 26.7485 111.818 26.7615Z" fill="#333333"/>
<path d="M103.418 31.8398C103.377 31.8878 103.326 31.9255 103.268 31.9499C103.21 31.9743 103.147 31.9847 103.084 31.9803C103.021 31.9846 102.958 31.9742 102.899 31.9498C102.84 31.9254 102.788 31.8878 102.746 31.8398C102.667 31.7411 102.626 31.6169 102.63 31.4901V26.3138C102.626 26.1881 102.667 26.065 102.746 25.9678C102.789 25.9213 102.842 25.885 102.9 25.8616C102.959 25.8382 103.021 25.8283 103.084 25.8326C103.146 25.8281 103.209 25.8379 103.267 25.8613C103.325 25.8848 103.376 25.9212 103.418 25.9678C103.494 26.0668 103.533 26.189 103.529 26.3138V28.3414H103.545C103.684 28.1673 103.864 28.0309 104.069 27.9449C104.304 27.839 104.559 27.7856 104.816 27.7881C105.352 27.7881 105.767 27.9557 106.049 28.2928C106.331 28.6298 106.469 29.1219 106.469 29.7671V31.4901C106.474 31.6161 106.434 31.7398 106.358 31.8398C106.317 31.888 106.266 31.9259 106.208 31.9503C106.15 31.9747 106.087 31.985 106.024 31.9803C105.961 31.9846 105.897 31.9742 105.839 31.9498C105.78 31.9254 105.728 31.8878 105.686 31.8398C105.608 31.7408 105.567 31.6167 105.572 31.4901V29.8482C105.572 29.0299 105.264 28.6208 104.65 28.6208C104.5 28.6146 104.35 28.6408 104.211 28.6977C104.072 28.7546 103.947 28.8408 103.844 28.9506C103.63 29.192 103.519 29.5088 103.536 29.832V31.4901C103.539 31.617 103.497 31.7408 103.418 31.8398Z" fill="#333333"/>
<path d="M100.315 32.0427C100.033 32.057 99.7515 32.0116 99.4881 31.9095C99.2246 31.8073 98.9852 31.6508 98.7854 31.4498C98.4182 31.0235 98.2161 30.4779 98.2161 29.9133C98.2161 29.3487 98.4182 28.8031 98.7854 28.3768C99.1666 27.9839 99.6885 27.7874 100.351 27.7874C100.743 27.7624 101.133 27.8633 101.464 28.0758C101.533 28.1229 101.589 28.1863 101.628 28.2605C101.667 28.3347 101.686 28.4174 101.686 28.5012C101.688 28.5962 101.653 28.6882 101.588 28.7571C101.552 28.7932 101.509 28.8212 101.461 28.8392C101.414 28.8573 101.363 28.8649 101.312 28.8616C101.175 28.8446 101.041 28.805 100.916 28.7445C100.734 28.6659 100.538 28.6249 100.34 28.6237C100.176 28.615 100.013 28.6428 99.8607 28.7051C99.7087 28.7674 99.5722 28.8627 99.4609 28.9842C99.2525 29.25 99.1391 29.5789 99.1391 29.9178C99.1391 30.2567 99.2525 30.5856 99.4609 30.8514C99.5745 30.9739 99.7134 31.0698 99.8679 31.1321C100.022 31.1944 100.188 31.2216 100.354 31.2119C100.555 31.2124 100.754 31.1713 100.939 31.0911C101.061 31.0312 101.191 30.991 101.325 30.9721C101.375 30.9691 101.426 30.9769 101.473 30.9949C101.52 31.0129 101.563 31.0408 101.598 31.0767C101.631 31.1102 101.657 31.1502 101.675 31.1942C101.692 31.2382 101.7 31.2853 101.698 31.3326C101.699 31.416 101.677 31.498 101.635 31.57C101.593 31.642 101.533 31.7013 101.461 31.7417C101.119 31.959 100.719 32.0642 100.315 32.0427Z" fill="#333333"/>
<path d="M96.3502 31.8378C96.3092 31.8859 96.2576 31.9236 96.1996 31.948C96.1416 31.9724 96.0787 31.9828 96.016 31.9784C95.9528 31.9827 95.8894 31.9722 95.8309 31.9478C95.7723 31.9235 95.7201 31.8858 95.6782 31.8378C95.5991 31.7391 95.5579 31.615 95.5621 31.4882V28.244C95.5589 28.1404 95.5932 28.0392 95.6586 27.9592C95.6927 27.9195 95.7354 27.8882 95.7834 27.8679C95.8315 27.8476 95.8836 27.8387 95.9356 27.8421C96.1804 27.8421 96.293 27.9502 96.293 28.1629V28.5234H96.3091C96.421 28.314 96.5817 28.1353 96.7773 28.0025C96.966 27.8681 97.1898 27.7929 97.4207 27.7862C97.4787 27.782 97.5369 27.7906 97.5912 27.8115C97.6456 27.8323 97.6947 27.8649 97.7352 27.907C97.8073 27.9879 97.8457 28.0938 97.8425 28.2025C97.8441 28.3099 97.8058 28.4141 97.7352 28.4945C97.6952 28.5374 97.6462 28.5708 97.5918 28.5923C97.5374 28.6138 97.479 28.6229 97.4207 28.6189C97.2906 28.6181 97.1618 28.6437 97.0417 28.6942C96.9217 28.7447 96.8129 28.819 96.7219 28.9127C96.5364 29.1252 96.4419 29.4032 96.4592 29.6859V31.4882C96.4643 31.614 96.4258 31.7376 96.3502 31.8378Z" fill="#333333"/>
<path d="M92.0346 32.0424C91.651 32.0649 91.2716 31.9514 90.9623 31.7216C90.8319 31.6085 90.7292 31.4665 90.6622 31.3067C90.5953 31.1469 90.5658 30.9737 90.5763 30.8006C90.5695 30.6132 90.6075 30.427 90.6871 30.2576C90.7668 30.0882 90.8857 29.9406 91.0338 29.8273C91.3601 29.5811 91.7596 29.454 92.1668 29.4669C92.5983 29.4615 93.0233 29.5722 93.3982 29.7877C93.3982 29.3803 93.3052 29.0848 93.1158 28.9009C92.8781 28.6993 92.5712 28.6002 92.2616 28.6252C92.0223 28.6298 91.7848 28.6674 91.5556 28.7369C91.4695 28.7619 91.3817 28.7806 91.2929 28.7928C91.0534 28.7928 90.9355 28.6684 90.9355 28.4161C90.941 28.314 90.9786 28.2164 91.0429 28.1373C91.1072 28.0582 91.1947 28.0018 91.2929 27.9763C91.6476 27.8377 92.0261 27.7721 92.4063 27.7835C92.7347 27.7739 93.0614 27.8353 93.3642 27.9637C93.6074 28.0679 93.8106 28.2488 93.9433 28.4792C94.072 28.7026 94.1627 28.9464 94.2113 29.2001C94.2624 29.4977 94.2864 29.7993 94.2828 30.1013V30.5969C94.2753 30.7321 94.2885 30.8677 94.3221 30.9988C94.365 31.0854 94.4347 31.1556 94.5205 31.1989C94.5871 31.2422 94.6421 31.3013 94.6807 31.3711C94.7194 31.4409 94.7405 31.5191 94.7421 31.599C94.7444 31.6598 94.7344 31.7204 94.7126 31.7772C94.6907 31.8339 94.6576 31.8855 94.6152 31.9288C94.5635 31.9743 94.5029 32.0083 94.4373 32.0288C94.3718 32.0493 94.3027 32.0557 94.2346 32.0478C94.1399 32.0473 94.0464 32.0267 93.9601 31.9873C93.8739 31.9478 93.7969 31.8904 93.7342 31.8189C93.6097 31.6738 93.5318 31.4941 93.5108 31.3034H93.4947C93.3332 31.5411 93.1145 31.7335 92.8591 31.8628C92.6038 31.992 92.3201 32.0538 92.0346 32.0424ZM92.233 31.3214C92.5188 31.3237 92.7957 31.2212 93.0122 31.0331C93.2176 30.8786 93.3543 30.6487 93.3928 30.3932C93.1045 30.2045 92.7679 30.1044 92.4242 30.1049C92.1887 30.0929 91.955 30.1512 91.7522 30.2725C91.6734 30.3225 91.609 30.3924 91.5651 30.4752C91.5212 30.558 91.4995 30.6509 91.502 30.7447C91.502 31.1376 91.7451 31.3286 92.233 31.3286V31.3214Z" fill="#333333"/>
<path d="M88.3393 32.0418C87.6245 32.0418 87.0705 31.8496 86.6773 31.4651C86.2841 31.0806 86.0911 30.5567 86.0982 29.8934C86.086 29.6148 86.1285 29.3365 86.2233 29.0746C86.318 28.8126 86.4632 28.5721 86.6505 28.3669C86.8349 28.1741 87.0576 28.0228 87.3039 27.9228C87.5503 27.8228 87.8148 27.7764 88.0802 27.7865C88.6688 27.7865 89.1257 27.9559 89.4509 28.2948C89.6178 28.4758 89.747 28.6887 89.8311 28.9208C89.9152 29.1529 89.9524 29.3997 89.9406 29.6465C89.9528 29.7999 89.9118 29.9529 89.8245 30.0791C89.7725 30.129 89.7105 30.1669 89.6426 30.1903C89.5747 30.2136 89.5026 30.2218 89.4313 30.2143H87.0204C87.0188 30.3524 87.0483 30.4891 87.1069 30.614C87.1654 30.7389 87.2513 30.8487 87.3582 30.9352C87.6363 31.1487 87.9817 31.2531 88.3304 31.229C88.5519 31.23 88.7717 31.1903 88.9791 31.1118C89.1067 31.0551 89.2414 31.0162 89.3795 30.9965C89.4304 30.9937 89.4814 31.0013 89.5293 31.019C89.5772 31.0367 89.6211 31.0639 89.6583 31.0992C89.6922 31.1326 89.7189 31.1728 89.7367 31.2172C89.7546 31.2615 89.7631 31.3091 89.7619 31.3569C89.76 31.4419 89.7362 31.5249 89.693 31.5979C89.6498 31.6708 89.5885 31.7313 89.5153 31.7733C89.1568 31.9743 88.7487 32.0675 88.3393 32.0418ZM87.0204 29.5888H89.0149C89.0189 29.5409 89.0189 29.4926 89.0149 29.4447C89.0195 29.3271 89.0005 29.2098 88.9591 29.0999C88.9176 28.9899 88.8545 28.8896 88.7736 28.8048C88.6771 28.7172 88.5641 28.6499 88.4412 28.6072C88.3184 28.5645 88.1884 28.5471 88.0588 28.5561C87.9212 28.5524 87.7843 28.5769 87.6564 28.6284C87.5286 28.6798 87.4125 28.757 87.3153 28.8553C87.2192 28.9509 87.1436 29.0653 87.0929 29.1914C87.0422 29.3175 87.0175 29.4528 87.0204 29.5888Z" fill="#333333"/>
<path d="M85.3425 30.3035C85.3539 30.5505 85.3057 30.7967 85.2021 31.0208C85.0984 31.245 84.9424 31.4404 84.7473 31.5903C84.2986 31.9133 83.7558 32.0757 83.205 32.0517C82.5905 32.069 81.9829 31.9163 81.4483 31.6101C81.3588 31.5676 81.2818 31.5024 81.2248 31.4209C81.1678 31.3394 81.1327 31.2444 81.123 31.1451C81.1195 31.088 81.1292 31.0307 81.1512 30.9779C81.1732 30.9251 81.207 30.8781 81.2499 30.8406C81.3428 30.769 81.4587 30.735 81.5752 30.745C81.7926 30.8132 82.0061 30.8932 82.2149 30.9847C82.5226 31.1211 82.8531 31.1975 83.1889 31.21C83.4973 31.2316 83.8039 31.1478 84.0593 30.9721C84.1518 30.9052 84.2272 30.817 84.2791 30.7148C84.331 30.6126 84.358 30.4994 84.3578 30.3846C84.3586 30.2738 84.3282 30.165 84.2702 30.071C84.2183 29.9832 84.1539 29.9036 84.079 29.8349C83.9788 29.7545 83.8681 29.6884 83.7501 29.6384C83.5982 29.5699 83.4767 29.5176 83.3838 29.487L82.9423 29.3338L82.7994 29.2852C82.362 29.1582 81.956 28.9403 81.6073 28.6453C81.4696 28.4926 81.3645 28.313 81.2985 28.1176C81.2326 27.9222 81.2072 27.7152 81.224 27.5094C81.2407 27.3037 81.2993 27.1037 81.396 26.9217C81.4927 26.7398 81.6254 26.5799 81.786 26.4519C82.1631 26.1671 82.6796 26.0229 83.3355 26.0229C84.0301 26.0229 84.552 26.1431 84.901 26.3834C84.9719 26.4253 85.0311 26.4846 85.073 26.5559C85.1149 26.6271 85.1381 26.7079 85.1405 26.7907C85.1432 26.8439 85.1342 26.897 85.1141 26.9463C85.094 26.9955 85.0634 27.0396 85.0244 27.0755C84.9358 27.1466 84.8246 27.1825 84.7116 27.1764C84.5149 27.1429 84.3236 27.0823 84.1433 26.9962C83.8692 26.8823 83.5765 26.8212 83.2801 26.816C83.0051 26.8015 82.7323 26.8713 82.4973 27.016C82.4071 27.0735 82.3331 27.1535 82.2824 27.2482C82.2317 27.3429 82.206 27.4491 82.2078 27.5567C82.2043 27.6524 82.2241 27.7474 82.2655 27.8336C82.307 27.9197 82.3688 27.9942 82.4455 28.0506C82.6658 28.1991 82.9067 28.3139 83.1604 28.3912C83.373 28.4543 83.5285 28.5047 83.6304 28.539L84.0396 28.6832C84.1724 28.7274 84.3015 28.7823 84.4257 28.8472C84.5091 28.8953 84.6109 28.9553 84.7313 29.0274C84.8334 29.0968 84.9224 29.1841 84.994 29.2852C85.0512 29.3627 85.1119 29.4528 85.1727 29.5537C85.2371 29.6579 85.2814 29.7735 85.3032 29.8943C85.3294 30.0291 85.3426 30.1661 85.3425 30.3035Z" fill="#333333"/>
<path d="M126.24 38.6558H116.616C116.226 38.6554 115.848 38.7938 115.55 39.0467C115.251 39.2996 115.05 39.6507 114.983 40.0381L110.495 65.8798C110.423 66.2908 110.441 66.7128 110.548 67.116C110.655 67.5191 110.848 67.8938 111.114 68.2137C111.38 68.5335 111.712 68.7908 112.087 68.9673C112.462 69.1439 112.871 69.2355 113.285 69.2357C113.948 69.2361 114.59 69.0018 115.1 68.5736C115.609 68.1455 115.954 67.5506 116.073 66.8927L117.681 57.6829C117.727 57.4262 117.861 57.1939 118.059 57.0265C118.257 56.8592 118.508 56.7674 118.766 56.7673H125.237C127.39 56.7675 129.475 56.0049 131.127 54.6128C132.778 53.2206 133.893 51.2873 134.275 49.1507L134.391 48.5036C134.609 47.2996 134.561 46.062 134.252 44.8785C133.943 43.695 133.38 42.5945 132.602 41.655C131.824 40.7154 130.851 39.9597 129.752 39.4414C128.652 38.9232 127.454 38.6549 126.24 38.6558ZM129.394 48.2639C129.258 49.0245 128.861 49.7128 128.273 50.2088C127.686 50.7048 126.944 50.9771 126.177 50.9782H119.937C119.807 50.977 119.68 50.9474 119.563 50.8916C119.446 50.8358 119.343 50.755 119.26 50.655C119.177 50.5549 119.116 50.4378 119.083 50.3119C119.049 50.186 119.043 50.0542 119.065 49.9257L119.926 45.1117C119.964 44.9061 120.072 44.7203 120.231 44.5861C120.39 44.4519 120.591 44.3778 120.798 44.3763H126.172C126.652 44.3761 127.126 44.4823 127.561 44.6873C127.995 44.8924 128.38 45.1913 128.687 45.5629C128.995 45.9345 129.218 46.3697 129.34 46.8377C129.462 47.3057 129.48 47.7951 129.394 48.2711V48.2639Z" fill="#FF0000"/>
<path d="M105.282 63.5288H98.2493C98.1089 63.529 97.9701 63.498 97.8429 63.4381C97.7156 63.3782 97.603 63.2908 97.513 63.1822C97.423 63.0735 97.3577 62.9461 97.3219 62.8092C97.2861 62.6723 97.2805 62.5291 97.3057 62.3898L100.905 42.0379C100.971 41.6685 100.964 41.2895 100.885 40.9227C100.806 40.5559 100.655 40.2085 100.443 39.9002C100.231 39.5919 99.96 39.3289 99.6468 39.126C99.3336 38.9232 98.9838 38.7846 98.6175 38.7181C98.2511 38.6516 97.8753 38.6585 97.5116 38.7384C97.1479 38.8184 96.8034 38.9698 96.4977 39.184C96.192 39.3982 95.9312 39.6711 95.7301 39.9869C95.5289 40.3028 95.3915 40.6556 95.3255 41.025L90.7665 66.8181C90.714 67.1139 90.7265 67.4178 90.803 67.7083C90.8795 67.9987 91.0182 68.2688 91.2093 68.4994C91.4005 68.73 91.6395 68.9155 91.9094 69.0429C92.1793 69.1703 92.4737 69.2365 92.7717 69.2368H105.282C106.032 69.2368 106.751 68.9364 107.281 68.4017C107.811 67.8669 108.109 67.1417 108.109 66.3855C108.109 65.6293 107.811 64.9041 107.281 64.3693C106.751 63.8346 106.032 63.5342 105.282 63.5342V63.5288Z" fill="#FF0000"/>
<path d="M78.2986 45.6182C78.3557 45.2968 78.523 45.0058 78.7713 44.7962C79.0196 44.5867 79.3331 44.4719 79.6568 44.4719H89.4594C90.1268 44.4721 90.7731 44.2357 91.2853 43.8041C91.7975 43.3726 92.1431 42.7733 92.2616 42.1109C92.3351 41.699 92.3184 41.276 92.2127 40.8713C92.1071 40.4667 91.915 40.0903 91.6499 39.7683C91.3848 39.4464 91.0532 39.1868 90.6782 39.0077C90.3032 38.8286 89.8939 38.7344 89.479 38.7315L75.634 38.6558C75.1216 38.6521 74.6243 38.8309 74.2298 39.1606C73.8352 39.4902 73.5686 39.9497 73.4769 40.4581L69.227 64.2055C69.1169 64.8207 69.142 65.4528 69.3006 66.0572C69.4592 66.6615 69.7474 67.2234 70.1449 67.7031C70.5424 68.1828 71.0394 68.5687 71.6009 68.8336C72.1625 69.0984 72.7748 69.2357 73.3947 69.2358L84.9629 69.2124C85.6344 69.2113 86.2846 68.9743 86.8016 68.542C87.3186 68.1098 87.67 67.5094 87.7955 66.8441C87.875 66.423 87.8613 65.9894 87.7554 65.5742C87.6495 65.159 87.454 64.7726 87.1829 64.4424C86.9118 64.1122 86.5718 63.8464 86.1871 63.664C85.8025 63.4816 85.3826 63.3871 84.9575 63.3873H76.7706C76.5686 63.3871 76.369 63.3422 76.1861 63.2558C76.0031 63.1693 75.8411 63.0435 75.7116 62.8871C75.5821 62.7307 75.4882 62.5476 75.4365 62.3506C75.3848 62.1537 75.3766 61.9477 75.4124 61.7471L76.0754 57.9947C76.1332 57.6735 76.301 57.3829 76.5496 57.1737C76.7982 56.9646 77.1117 56.8501 77.4354 56.8502H82.7861C83.4589 56.8497 84.1095 56.6074 84.6211 56.1667C85.1327 55.7261 85.4719 55.116 85.5777 54.4459C85.6418 54.0389 85.6175 53.6226 85.5067 53.2259C85.3959 52.8292 85.2011 52.4614 84.9358 52.1479C84.6705 51.8344 84.3409 51.5826 83.9698 51.41C83.5987 51.2373 83.1949 51.1478 82.7861 51.1477H78.9617C78.7594 51.1475 78.5596 51.1026 78.3764 51.0161C78.1933 50.9296 78.0311 50.8036 77.9014 50.647C77.7718 50.4905 77.6777 50.3072 77.6259 50.11C77.5741 49.9128 77.5658 49.7066 77.6016 49.5058L78.2986 45.6182Z" fill="#FF0000"/>
<path d="M24.4124 63.2997C24.3056 63.2003 24.2287 63.0724 24.1908 62.9308C24.1529 62.7892 24.1553 62.6397 24.198 62.4995C24.1568 62.6399 24.1551 62.789 24.1929 62.9302C24.2308 63.0715 24.3068 63.1994 24.4124 63.2997Z" fill="#FF0000"/>
<path d="M64.3549 67.9131L63.9617 68.2105C63.2375 68.7588 62.3593 69.0609 61.4538 69.0733C60.5483 69.0856 59.6624 68.8074 58.9238 68.279L45.8776 58.943C45.3891 58.5948 44.8056 58.4078 44.2075 58.4078C43.6093 58.4078 43.0258 58.5948 42.5374 58.943L24.2208 71.99C23.4736 72.5219 22.5768 72.7979 21.6623 72.7773C20.7479 72.7568 19.8642 72.4407 19.1412 71.8757C18.4182 71.3106 17.8942 70.5265 17.6463 69.6386C17.3983 68.7507 17.4395 67.806 17.7639 66.9435L27.007 42.4788C27.308 41.6883 27.8999 41.0454 28.6594 40.6841C29.4188 40.3228 30.2871 40.271 31.0835 40.5395C31.243 40.5924 31.3979 40.6587 31.5464 40.7377L32.0075 41.0333C32.1608 41.1503 32.3032 41.2812 32.4328 41.4244C32.5185 41.5173 32.5985 41.6155 32.6723 41.7182C32.7816 41.871 32.8784 42.0326 32.9618 42.2012C33.0164 42.3123 33.0642 42.4266 33.1048 42.5437C33.1244 42.6031 33.1441 42.6626 33.162 42.7239C33.197 42.8423 33.2251 42.9626 33.246 43.0844C33.3485 43.6779 33.2866 44.2884 33.0672 44.8488L26.873 60.6624C26.8631 60.6858 26.8547 60.7099 26.848 60.7345C26.8072 60.868 26.8047 61.0104 26.8407 61.1453C26.8768 61.2802 26.9499 61.4021 27.0517 61.4969C27.069 61.5143 27.0875 61.5306 27.1071 61.5455C27.1439 61.5774 27.1841 61.6052 27.2268 61.6284C27.2465 61.6393 27.2697 61.6483 27.2947 61.6591C27.34 61.6792 27.3874 61.6943 27.4359 61.7041C27.5386 61.7248 27.6444 61.7235 27.7465 61.7006C27.8487 61.6776 27.945 61.6334 28.0293 61.5708L40.0729 52.8367L40.2927 52.6853C40.441 52.5862 40.5929 52.4943 40.7449 52.4078C40.8968 52.3213 41.0558 52.2456 41.2131 52.1717C41.607 51.9932 42.0169 51.8532 42.4373 51.7535C42.6035 51.7139 42.7715 51.6796 42.9395 51.6544C43.1075 51.6292 43.2772 51.6093 43.4488 51.5967C43.7015 51.5769 43.9551 51.5715 44.2084 51.5805C44.253 51.5805 44.2959 51.5805 44.3388 51.5895C44.3817 51.5985 44.4496 51.5895 44.5032 51.5895L44.707 51.6093C44.7892 51.6183 44.8732 51.631 44.9554 51.6436C44.9875 51.6436 45.0233 51.6436 45.059 51.6616C46.0317 51.8239 46.9561 52.2032 47.7648 52.7718L57.3654 59.5233C57.4929 59.6127 57.6443 59.6608 57.7996 59.6612C57.9549 59.6617 58.1066 59.6144 58.2347 59.5258C58.3627 59.4372 58.4609 59.3114 58.5163 59.1651C58.5718 59.0188 58.5817 58.859 58.5449 58.7069L54.4845 41.6515C54.2989 40.8706 54.4272 40.0473 54.8414 39.3614C55.2556 38.6755 55.922 38.1827 56.6952 37.9906C57.4684 37.7985 58.2856 37.9227 58.9683 38.3361C59.651 38.7495 60.1439 39.4185 60.3392 40.197L65.9401 63.4272C66.1428 64.2492 66.1004 65.1133 65.8185 65.9113C65.5365 66.7092 65.0274 67.4056 64.3549 67.9131Z" fill="#FF0000"/>
<path d="M10.1778 26.1287H30.764C31.1883 26.1282 31.6027 25.999 31.9532 25.7579C32.3038 25.5169 32.5744 25.1751 32.7299 24.777L41.226 3.1095C42.7255 -0.72043 48.2209 -0.32752 49.1717 3.67724L54.0882 24.4039C54.1983 24.871 54.4615 25.287 54.8351 25.5846C55.2087 25.8822 55.6709 26.0441 56.147 26.044H74.1758C75.0014 26.044 75.7933 26.3748 76.3771 26.9636C76.961 27.5524 77.289 28.351 77.289 29.1837C77.289 30.0164 76.961 30.8149 76.3771 31.4037C75.7933 31.9925 75.0014 32.3233 74.1758 32.3233H52.7299C51.9455 32.3231 51.1836 32.0581 50.5659 31.5704C49.9482 31.0827 49.5103 30.4004 49.3218 29.6325L45.2918 13.244C45.2542 13.0917 45.1697 12.9554 45.0504 12.8547C44.931 12.754 44.7831 12.6941 44.6278 12.6837C44.4726 12.6733 44.318 12.7128 44.1865 12.7967C44.055 12.8805 43.9533 13.0043 43.896 13.1502L37.2603 30.0921C37.0015 30.7524 36.5517 31.319 35.9695 31.7182C35.3872 32.1174 34.6993 32.3307 33.9952 32.3305H19.1261C18.9893 32.3313 18.8563 32.3756 18.7459 32.4571C18.6356 32.5387 18.5537 32.6534 18.5119 32.7847C18.47 32.9161 18.4704 33.0574 18.513 33.1885C18.5556 33.3196 18.6382 33.4337 18.749 33.5147L25.9459 38.7125C26.2203 38.9109 26.4218 39.1953 26.5189 39.5215C26.6159 39.8476 26.6029 40.197 26.482 40.5149L25.3454 43.5536C25.264 43.7739 25.1336 43.9724 24.9643 44.134C24.7949 44.2955 24.591 44.4157 24.3683 44.4853C24.1457 44.555 23.9102 44.5722 23.6799 44.5356C23.4496 44.4991 23.2307 44.4097 23.04 44.2745L8.07437 33.6102C7.51288 33.2109 7.05472 32.6815 6.73842 32.0664C6.42213 31.4514 6.25697 30.7687 6.25684 30.0758C6.25873 29.0283 6.67267 28.0244 7.4078 27.2844C8.14292 26.5444 9.13917 26.1287 10.1778 26.1287Z" fill="#F3B301"/>
<path d="M40.5716 33.8994C38.7691 33.8979 37.0083 34.4462 35.5204 35.4723C34.0325 36.4984 32.8871 37.9543 32.2346 39.6488C32.6923 39.8003 33.1213 40.0288 33.5034 40.3247C34.26 40.9043 34.8081 41.7173 35.0643 42.64C35.3204 43.5627 35.2706 44.5445 34.9224 45.4361L28.8032 59.5789L39.242 51.108C40.2076 50.4079 41.325 49.9505 42.5012 49.7737C43.6774 49.5969 44.8785 49.7058 46.0046 50.0915C47.491 48.9461 48.584 47.3595 49.1297 45.5549C49.6754 43.7504 49.6463 41.8187 49.0466 40.0317C48.4468 38.2447 47.3066 36.6923 45.7864 35.5929C44.2661 34.4935 42.4423 33.9025 40.5716 33.903V33.8994ZM41.6082 44.562C41.038 44.562 40.4807 44.3914 40.0066 44.072C39.5326 43.7526 39.1631 43.2985 38.9449 42.7673C38.7267 42.2361 38.6697 41.6516 38.7809 41.0876C38.8921 40.5237 39.1667 40.0057 39.5698 39.5991C39.973 39.1926 40.4866 38.9157 41.0458 38.8035C41.605 38.6914 42.1846 38.7489 42.7113 38.969C43.2381 39.189 43.6883 39.5616 44.005 40.0397C44.3218 40.5178 44.4908 41.0798 44.4908 41.6548C44.4904 42.4257 44.1865 43.1649 43.646 43.7099C43.1055 44.255 42.3726 44.5615 41.6082 44.562Z" fill="#333333"/>
<path d="M45.0573 51.6621C45.0215 51.6621 44.9858 51.6495 44.9536 51.644C44.9885 51.6482 45.0231 51.6542 45.0573 51.6621Z" fill="url(#paint0_linear_134_6114)"/>
<path d="M31.0833 40.5303C31.2429 40.5844 31.3977 40.6519 31.5461 40.7321C31.3976 40.6531 31.2428 40.5868 31.0833 40.5339V40.5303Z" fill="url(#paint1_linear_134_6114)"/>
<defs>
<linearGradient id="paint0_linear_134_6114" x1="-6.80206" y1="78.3609" x2="186.983" y2="-19.8801" gradientUnits="userSpaceOnUse">
<stop stop-color="#E72D87"/>
<stop offset="0.26" stop-color="#A73185"/>
<stop offset="0.51" stop-color="#6F3484"/>
<stop offset="0.73" stop-color="#473683"/>
<stop offset="0.9" stop-color="#2E3782"/>
<stop offset="1" stop-color="#253882"/>
</linearGradient>
<linearGradient id="paint1_linear_134_6114" x1="-14.0673" y1="64.027" x2="179.721" y2="-34.2037" gradientUnits="userSpaceOnUse">
<stop stop-color="#E72D87"/>
<stop offset="0.26" stop-color="#A73185"/>
<stop offset="0.51" stop-color="#6F3484"/>
<stop offset="0.73" stop-color="#473683"/>
<stop offset="0.9" stop-color="#2E3782"/>
<stop offset="1" stop-color="#253882"/>
</linearGradient>
</defs>
</svg>
