<svg width="119" height="118" viewBox="0 0 119 118" fill="none" xmlns="http://www.w3.org/2000/svg">
<rect x="0.5" width="118" height="118" rx="59" fill="#FFF0C7"/>
<path d="M73.6077 38.0402L73.421 48.1468C73.3944 49.5335 74.2744 51.3735 75.3944 52.2002L82.0077 57.2135C86.2477 60.4135 85.5544 64.3335 80.4877 65.9335L71.8744 68.6268C70.4344 69.0802 68.9144 70.6535 68.541 72.1202L66.4877 79.9602C64.861 86.1468 60.8077 86.7602 57.4477 81.3202L52.7544 73.7202C51.901 72.3335 49.8744 71.2935 48.2744 71.3735L39.3677 71.8268C32.9944 72.1468 31.181 68.4668 35.341 63.6135L40.621 57.4802C41.6077 56.3335 42.061 54.2002 41.6077 52.7602L38.8877 44.1202C37.3144 39.0535 40.141 36.2535 45.181 37.9068L53.0477 40.4935C54.381 40.9202 56.381 40.6268 57.501 39.8002L65.7144 33.8802C70.1677 30.7068 73.7144 32.5735 73.6077 38.0402Z" fill="#F3B301"/>
<path d="M84.6742 81.5868L76.5942 73.5068C75.8208 72.7334 74.5408 72.7334 73.7675 73.5068C72.9942 74.2801 72.9942 75.5601 73.7675 76.3334L81.8475 84.4134C82.2475 84.8134 82.7542 85.0001 83.2608 85.0001C83.7675 85.0001 84.2742 84.8134 84.6742 84.4134C85.4475 83.6401 85.4475 82.3601 84.6742 81.5868Z" fill="#F3B301"/>
</svg>
