<svg width="119" height="118" viewBox="0 0 119 118" fill="none" xmlns="http://www.w3.org/2000/svg">
<rect x="0.5" width="118" height="118" rx="59" fill="#FEDFDF"/>
<path d="M59.5 82.4667V86.7333C64.4963 86.7333 68.4643 84.9136 71.4957 82.4667H59.5Z" fill="#FF0000"/>
<path d="M38.167 61.1333V65.4C38.167 70.7333 42.4337 71.8 42.4337 71.8C42.4337 71.8 46.7003 84.6 59.5003 84.6" stroke="#FF0000" stroke-width="4.26667" stroke-miterlimit="10" stroke-linecap="round"/>
<path d="M82.9675 63.2666H76.5675C76.5675 49.9546 70.1675 44.0666 70.1675 44.0666C63.7675 58.9999 42.4342 48.3333 42.4342 63.2666H36.0342C36.0342 63.2666 36.0342 63.0149 36.0342 54.7333C36.0342 39.7999 48.8342 31.2666 59.5008 31.2666C68.0342 31.2666 70.1675 35.5333 70.1675 35.5333C78.7008 35.5333 82.9675 46.1999 82.9675 54.7333V63.2666Z" fill="#FF0000"/>
<path d="M60.5667 71.7999C60.1913 71.7999 58.8089 71.7999 58.4334 71.7999C56.667 71.7999 55.2334 73.2335 55.2334 74.9999C55.2334 76.7663 56.667 78.1999 58.4334 78.1999C58.8089 78.1999 60.1913 78.1999 60.5667 78.1999C62.3331 78.1999 63.7667 76.7663 63.7667 74.9999C63.7667 73.2335 62.3331 71.7999 60.5667 71.7999Z" fill="#FF0000"/>
<path d="M61.6338 76.0666H72.3005C77.013 76.0666 80.8338 72.2458 80.8338 67.5333V61.1333" stroke="#FF0000" stroke-width="4.26667" stroke-miterlimit="10" stroke-linecap="round"/>
<path d="M80.8331 69.6667H76.5664V59H80.8331C83.1904 59 85.0997 60.9093 85.0997 63.2667V65.4C85.0997 67.7573 83.1904 69.6667 80.8331 69.6667Z" fill="#FF0000"/>
</svg>
