<svg width="44" height="44" viewBox="0 0 44 44" fill="none" xmlns="http://www.w3.org/2000/svg">
<g filter="url(#filter0_d_134_6150)">
<rect x="5" y="5" width="34" height="34" rx="17" fill="#DBFFFE"/>
<g clip-path="url(#clip0_134_6150)">
<path d="M25.9224 19.4796C27.0885 20.3161 28.517 20.8083 30.0599 20.8083V17.8288C29.7679 17.8289 29.4767 17.7983 29.191 17.7376V20.0829C27.6483 20.0829 26.2199 19.5907 25.0535 18.7542V24.8345C25.0535 27.8762 22.5965 30.3418 19.5658 30.3418C18.435 30.3418 17.384 29.9987 16.5109 29.4103C17.5074 30.4329 18.8971 31.0672 20.4346 31.0672C23.4654 31.0672 25.9226 28.6016 25.9226 25.5598V19.4796H25.9224ZM26.9943 16.4736C26.3984 15.8203 26.0071 14.9759 25.9224 14.0424V13.6592H25.099C25.3063 14.8456 26.0132 15.8593 26.9943 16.4736ZM18.4278 27.0762C18.0948 26.6381 17.9149 26.1021 17.9157 25.5511C17.9157 24.1599 19.0395 23.032 20.426 23.032C20.6844 23.0319 20.9412 23.0716 21.1875 23.15V20.1039C20.8997 20.0643 20.6093 20.0475 20.319 20.0537V22.4246C20.0725 22.3462 19.8156 22.3064 19.5571 22.3066C18.1706 22.3066 17.0469 23.4345 17.0469 24.8258C17.0469 25.8096 17.6086 26.6613 18.4278 27.0762Z" fill="#FF004F"/>
<path d="M25.0536 18.7542C26.22 19.5906 27.6484 20.0828 29.1911 20.0828V17.7375C28.3299 17.5534 27.5676 17.1018 26.9944 16.4736C26.0133 15.8592 25.3064 14.8456 25.0991 13.6592H22.9363V25.5597C22.9314 26.947 21.8095 28.0704 20.426 28.0704C19.6107 28.0704 18.8864 27.6804 18.4277 27.0762C17.6086 26.6613 17.0468 25.8095 17.0468 24.8259C17.0468 23.4347 18.1706 22.3067 19.5571 22.3067C19.8227 22.3067 20.0788 22.3482 20.3189 22.4247V20.0538C17.3415 20.1155 14.9469 22.557 14.9469 25.5597C14.9469 27.0587 15.5432 28.4175 16.511 29.4104C17.3841 29.9987 18.4352 30.3419 19.566 30.3419C22.5968 30.3419 25.0537 27.8762 25.0537 24.8345V18.7542H25.0536Z" fill="black"/>
<path d="M29.1911 17.7373V17.1031C28.4146 17.1043 27.6533 16.886 26.9945 16.4733C27.5777 17.1141 28.3457 17.556 29.1911 17.7373ZM25.0992 13.6589C25.0794 13.5455 25.0642 13.4314 25.0537 13.3168V12.9336H22.0674V24.8342C22.0626 26.2214 20.9408 27.3447 19.5571 27.3447C19.1509 27.3447 18.7674 27.248 18.4277 27.076C18.8865 27.6801 19.6107 28.0701 20.426 28.0701C21.8094 28.0701 22.9315 26.9468 22.9363 25.5595V13.6589H25.0992ZM20.3191 20.0535V19.3784C20.0696 19.3442 19.818 19.327 19.5661 19.3271C16.5351 19.3271 14.0781 21.7928 14.0781 24.8342C14.0781 26.741 15.0438 28.4215 16.5111 29.41C15.5433 28.4172 14.947 27.0583 14.947 25.5594C14.947 22.5567 17.3415 20.1152 20.3191 20.0535Z" fill="#00F2EA"/>
</g>
</g>
<defs>
<filter id="filter0_d_134_6150" x="0.466667" y="0.466667" width="43.0667" height="43.0667" filterUnits="userSpaceOnUse" color-interpolation-filters="sRGB">
<feFlood flood-opacity="0" result="BackgroundImageFix"/>
<feColorMatrix in="SourceAlpha" type="matrix" values="0 0 0 0 0 0 0 0 0 0 0 0 0 0 0 0 0 0 127 0" result="hardAlpha"/>
<feOffset/>
<feGaussianBlur stdDeviation="2.26667"/>
<feComposite in2="hardAlpha" operator="out"/>
<feColorMatrix type="matrix" values="0 0 0 0 0 0 0 0 0 0 0 0 0 0 0 0 0 0 0.25 0"/>
<feBlend mode="normal" in2="BackgroundImageFix" result="effect1_dropShadow_134_6150"/>
<feBlend mode="normal" in="SourceGraphic" in2="effect1_dropShadow_134_6150" result="shape"/>
</filter>
<clipPath id="clip0_134_6150">
<rect x="12.9333" y="12.9336" width="18.1333" height="18.1333" rx="6.8" fill="white"/>
</clipPath>
</defs>
</svg>
