<svg width="119" height="118" viewBox="0 0 119 118" fill="none" xmlns="http://www.w3.org/2000/svg">
<rect x="0.5" width="118" height="118" rx="59" fill="#DBFFE1"/>
<path d="M51.4997 32.3334C44.513 32.3334 38.833 38.0134 38.833 45C38.833 51.8534 44.193 57.4 51.1797 57.64C51.393 57.6134 51.6063 57.6134 51.7663 57.64C51.8197 57.64 51.8463 57.64 51.8997 57.64C51.9263 57.64 51.9263 57.64 51.953 57.64C58.7797 57.4 64.1397 51.8534 64.1663 45C64.1663 38.0134 58.4863 32.3334 51.4997 32.3334Z" fill="#41FB00"/>
<path d="M65.0466 64.7333C57.6066 59.7733 45.4732 59.7733 37.9799 64.7333C34.5932 67 32.7266 70.0666 32.7266 73.3466C32.7266 76.6266 34.5932 79.6666 37.9532 81.9066C41.6866 84.4133 46.5932 85.6666 51.4999 85.6666C56.4066 85.6666 61.3132 84.4133 65.0466 81.9066C68.4066 79.64 70.2732 76.6 70.2732 73.2933C70.2466 70.0133 68.4066 66.9733 65.0466 64.7333Z" fill="#41FB00"/>
<path d="M80.8079 46.5733C81.2346 51.7466 77.5546 56.2799 72.4613 56.8933C72.4346 56.8933 72.4346 56.8933 72.4079 56.8933H72.3279C72.1679 56.8933 72.0079 56.8933 71.8746 56.9466C69.2879 57.0799 66.9146 56.2533 65.1279 54.7333C67.8746 52.2799 69.4479 48.5999 69.1279 44.5999C68.9413 42.4399 68.1946 40.4666 67.0746 38.7866C68.0879 38.2799 69.2613 37.9599 70.4613 37.8533C75.6879 37.3999 80.3546 41.2933 80.8079 46.5733Z" fill="#41FB00"/>
<path d="M86.14 71.24C85.9266 73.8267 84.2733 76.0667 81.5 77.5867C78.8333 79.0533 75.4733 79.7467 72.14 79.6667C74.06 77.9333 75.18 75.7733 75.3933 73.48C75.66 70.1733 74.0866 67 70.94 64.4667C69.1533 63.0533 67.0733 61.9333 64.8066 61.1067C70.7 59.4 78.1133 60.5467 82.6733 64.2267C85.1266 66.2 86.38 68.68 86.14 71.24Z" fill="#41FB00"/>
</svg>
