<svg width="38" height="38" viewBox="0 0 38 38" fill="none" xmlns="http://www.w3.org/2000/svg">
<g filter="url(#filter0_d_121_1738)">
<rect x="4" y="4" width="30" height="30" rx="15" fill="#FFD9D9"/>
<path d="M25.8871 15.5277C25.7217 14.9053 25.2346 14.415 24.6161 14.2486C23.4951 13.9463 19 13.9463 19 13.9463C19 13.9463 14.5048 13.9463 13.3837 14.2486C12.7653 14.415 12.2782 14.9053 12.1129 15.5278C11.8125 16.656 11.8125 19.0102 11.8125 19.0102C11.8125 19.0102 11.8125 21.3644 12.1129 22.4926C12.2782 23.1151 12.7653 23.585 13.3837 23.7514C14.5048 24.0537 19 24.0537 19 24.0537C19 24.0537 23.4951 24.0537 24.6161 23.7514C25.2346 23.5849 25.7217 23.1151 25.8871 22.4926C26.1874 21.3644 26.1874 19.0102 26.1874 19.0102C26.1874 19.0102 26.1874 16.656 25.8871 15.5277Z" fill="#FF0000"/>
<path d="M17.5293 21.1478V16.873L21.2864 19.0105L17.5293 21.1478Z" fill="white"/>
</g>
<defs>
<filter id="filter0_d_121_1738" x="0" y="0" width="38" height="38" filterUnits="userSpaceOnUse" color-interpolation-filters="sRGB">
<feFlood flood-opacity="0" result="BackgroundImageFix"/>
<feColorMatrix in="SourceAlpha" type="matrix" values="0 0 0 0 0 0 0 0 0 0 0 0 0 0 0 0 0 0 127 0" result="hardAlpha"/>
<feOffset/>
<feGaussianBlur stdDeviation="2"/>
<feComposite in2="hardAlpha" operator="out"/>
<feColorMatrix type="matrix" values="0 0 0 0 0 0 0 0 0 0 0 0 0 0 0 0 0 0 0.25 0"/>
<feBlend mode="normal" in2="BackgroundImageFix" result="effect1_dropShadow_121_1738"/>
<feBlend mode="normal" in="SourceGraphic" in2="effect1_dropShadow_121_1738" result="shape"/>
</filter>
</defs>
</svg>
